<svg enable-background="new 0 0 1000 1000" viewBox="0 0 1000 1000" xmlns="http://www.w3.org/2000/svg"><path d="m500 1000c-276.1 0-500-223.9-500-500 0-276.1 223.9-500 500-500 276.1 0 500 223.9 500 500 0 276.1-223.9 500-500 500z" fill="#0078b5"/><g fill="#fff"><path d="m184.2 387.3h132.9v427.7h-132.9zm66.5-212.6c42.5 0 77 34.5 77 77.1s-34.5 77.1-77 77.1c-42.6 0-77.1-34.5-77.1-77.1-.1-42.5 34.4-77.1 77.1-77.1"/><path d="m400.5 387.3h127.5v58.4h1.8c17.7-33.6 61-69.1 125.8-69.1 134.6 0 159.5 88.6 159.5 203.7v234.7h-132.9v-207.9c0-49.7-.9-113.4-69.1-113.4-69.2 0-79.8 54-79.8 109.8v211.6h-132.8z"/></g></svg>