<svg xmlns="http://www.w3.org/2000/svg" height="64" width="64"><circle cx="31.833" cy="32" fill="#77b3d4" r="32"/><path d="M52 48a2 2 0 0 1-2 2H14a2 2 0 1 1 0-4h36a2 2 0 0 1 2 2z" fill="#231f20" opacity=".2"/><path d="M52 46a2 2 0 0 1-2 2H14a2 2 0 1 1 0-4h36a2 2 0 0 1 2 2z" fill="#e0995e"/><path d="M23 20h-4a3 3 0 0 0-3 3v21h10V23a3 3 0 0 0-3-3z" fill="#c75c5c"/><path d="M45 16h-4a3 3 0 0 0-3 3v25h10V19a3 3 0 0 0-3-3z" fill="#e0e0d1"/><path d="M16 24h10v3H16zm0 13h10v3H16z" fill="#e0995e"/><path d="M38 37h10v3H38zm0-17h10v3H38z" fill="#fff"/><path d="M40 40V16.184A2.99 2.99 0 0 0 38 19v25h2v-4zm-14 0V23a2.99 2.99 0 0 0-2-2.816V44h2v-4z" opacity=".2" fill="#231f20"/><path d="M35 12h-6a3 3 0 0 0-3 3v29h12V15a3 3 0 0 0-3-3z" fill="#4f5d73"/><path d="M26 16h12v3H26zm0 21h12v3H26z" fill="#76c2af"/></svg>