<svg xmlns="http://www.w3.org/2000/svg" height="64" width="64"><circle cx="32" cy="32" fill="#76c2af" r="32"/><path d="M45.293 51.49l5.196-5.196c.86-.86.61-2.51-.562-3.68L26.824 19.5l-12.642-4.33 4.33 12.642 23.103 23.102c1.17 1.173 2.818 1.425 3.68.564z" fill="#231f20" opacity=".2"/><path d="M37.37 44.32c-1.172-1.172-1.423-2.82-.562-3.68l5.196-5.196c.86-.86 2.51-.61 3.68.562l4.243 4.243c1.17 1.172 1.423 2.82.562 3.68l-5.196 5.196c-.86.86-2.51.61-3.68-.562L37.37 44.32z" fill="#c75c5c"/><g fill="#e0995e"><path d="M24.745 19.225l2.078-2.078L46.39 36.713 44.31 38.79z"/><path d="M19.174 21.967L23.33 17.8 44.3 38.78l-4.157 4.157zm-.674 3.495l2.078-2.078L40.154 42.95l-2.078 2.078z"/></g><path fill="#4f5d73" d="M14.182 12.818l1.443 4.214 2.77-2.77z"/><path fill="#f5cf87" d="M26.824 17.147l-8.428-2.886-2.77 2.77L18.5 25.46l1.04-1.04 2.454.375-.75-4.907 4.907.75-.375-2.453z"/><path d="M49.865 16.135c-1.933-1.933-13.04 6.04-19.874 12.874-3.362 3.362-5.058 5.82-5.69 7.682-2.108-.205-4.403.57-5.914 2.082-.968.968-1.498 2.04-1.894 3.202C15.733 44.206 15 47 12 49c2.236 2.236 10.984 2.865 15.227-1.378.45-.45.83-.967 1.144-1.53.74-1.33 1.068-2.898.925-4.38 1.864-.627 4.325-2.324 7.695-5.694 6.834-6.834 14.807-17.94 12.874-19.874z" fill="#231f20" opacity=".2"/><path d="M29.99 27.01c-6.834 6.834-6.807 9.94-4.874 11.874s5.04 1.96 11.874-4.874 14.807-17.94 12.874-19.874-13.04 6.04-19.874 12.874z" fill="#f5cf87"/><path d="M12 47c2.236 2.237 10.984 2.865 15.227-1.378.45-.45.83-.967 1.144-1.53-6.637-.198-10.145-2.408-11.877-4.108C15.733 42.206 15 45 12 47z" fill="#c75c5c"/><path d="M27.757 36.243c-2.44-2.44-6.928-1.9-9.37.53-.968.968-1.498 2.04-1.894 3.202 1.732 1.7 5.13 6.942 11.877 4.108 1.4-2.493 1.378-5.848-.614-7.84z" fill="#4f5d73"/><path d="M16.495 39.975s4.022-.764 5.938 2.06 5.938 2.05 5.938 2.05l-5.205 2.875-5.208-3.792-1.463-3.19z" fill="#c75c5c"/></svg>