<svg xmlns="http://www.w3.org/2000/svg" xmlns:xlink="http://www.w3.org/1999/xlink" height="64" width="64"><circle cx="32" cy="32" fill="#77b3d4" r="32"/><g opacity=".2" fill="#231f20"><path d="M32 11.914c-12.15 0-22 9.85-22 22s9.85 22 22 22 22-9.85 22-22-9.85-22-22-22zM14.053 24.72c.2.844-.2 2.36-.534 4.538-.378 2.54 1.647 1.99 1.58 4.393s1.785 3.398 1.544 3.638-1.2.583.24 3.707 2.677 4.05 2.85 5.73 2.025 4.153 2.025 4.153l.103.462c-5.994-3.5-10.032-10-10.032-17.428 0-3.31.807-6.435 2.226-9.194zm9.968 27.086c-.103-.446.103-2.85 2.986-3.81s2.402-2.23 3.26-3.466 1.03-2.162-.618-2.54-3.363-.652-4.84-2.986-3.535-2.402-4.633-3.123-1.99-.583-3.33-.755-.892-3.912-.824-4.736-.824.275-1.476-.296.618-3.24 1.888-3.136.96.72 1.2 2.128.686 1.064.79.618.172-2.334.618-2.917.55-2.162 1.99-2.094 1.407-1.304 2.47-.858 1.82.103 1.133-.48-.31-1.167.858-.79 1.235-1.682 1.03-2.746-1.064-1.373-2.128-.72-1.853.378-1.304-.72 2.71-.172 4.015.378 1.647-1.44.927-2.402-.755-.515-2.814-.378c-.82.055-.736-.386-.338-.936a20.06 20.06 0 0 1 7.116-1.3 20.05 20.05 0 0 1 7.197 1.332c.282.394.396.704.2.835-.824.55-1.544.06-1.304 1.59s1.373 3.352 2.265 2.75 2.437.154 1.098.978-1.716.755-2.334 1.304-.343.275.275.96.55.824-.31 1.167-1.373 1.098-.55 1.956 1.373 1.58 2.3 0 1.098-2.95 1.888-2.54 1.682 1.682 2.265.96.48-1.2 1.27-.652 3.707.583 1.75 2.025-1.613 2.06-2.54 1.888-5.114-1.064-6.075 1.27-4.462 4.187-2.643 6.452 1.407 3.912 4.015 4.256 3.947-.824 4.6.378.137 1.34.172 3.157c.017.902.498 2.6.978 4.09-3.672 3.8-8.82 6.188-14.518 6.188-2.868 0-5.597-.606-8.07-1.7.074-.285.112-.5.09-.592z"/><use xlink:href="#B"/></g><g fill="#fff"><path d="M32 10.087c-12.15 0-22 9.85-22 22s9.85 22 22 22 22-9.85 22-22-9.85-22-22-22zM14.053 22.893c.2.844-.2 2.36-.534 4.538-.378 2.54 1.647 1.99 1.58 4.393s1.785 3.398 1.544 3.638-1.2.583.24 3.707 2.677 4.05 2.85 5.73 2.025 4.153 2.025 4.153l.103.462c-5.994-3.5-10.032-10-10.032-17.428 0-3.31.807-6.435 2.226-9.194zM24.02 49.98c-.103-.446.103-2.85 2.986-3.81s2.402-2.23 3.26-3.466 1.03-2.162-.618-2.54-3.363-.652-4.84-2.986-3.535-2.402-4.633-3.123-1.99-.583-3.33-.755-.892-3.912-.824-4.736-.824.275-1.476-.296.618-3.24 1.888-3.136.96.72 1.2 2.128.686 1.064.79.618.172-2.334.618-2.917.55-2.162 1.99-2.093 1.407-1.304 2.47-.858 1.82.103 1.133-.48-.31-1.167.858-.79 1.235-1.682 1.03-2.746-1.064-1.373-2.128-.72-1.853.378-1.304-.72 2.71-.172 4.015.378 1.647-1.44.927-2.402-.755-.515-2.814-.378c-.82.055-.736-.386-.338-.936a20.06 20.06 0 0 1 7.116-1.3 20.05 20.05 0 0 1 7.197 1.332c.282.394.396.704.2.835-.824.55-1.544.06-1.304 1.59s1.373 3.352 2.265 2.75 2.437.154 1.098.978-1.716.755-2.334 1.304-.343.275.275.96.55.824-.31 1.167-1.373 1.098-.55 1.956 1.373 1.58 2.3 0 1.098-2.95 1.888-2.54 1.682 1.682 2.265.96.48-1.2 1.27-.652 3.707.583 1.75 2.025-1.613 2.06-2.54 1.888-5.114-1.064-6.075 1.27-4.462 4.187-2.643 6.452 1.407 3.912 4.015 4.256 3.947-.824 4.6.378.137 1.34.172 3.157c.017.902.498 2.6.978 4.09-3.672 3.8-8.82 6.188-14.518 6.188-2.868 0-5.597-.606-8.07-1.7.074-.286.112-.502.09-.593z"/><use xlink:href="#B" y="-1.827"/></g><defs ><path id="B" d="M32.086 18.207c.632-.38.686.137 1.235-1.613s-2.06-1.99-3.295-1.785-.686.72-.686.72c.412.652.684 3.054-.053 3.947s.602 1.064 1.185.24.93-1.1 1.614-1.5z"/></defs></svg>