<svg xmlns="http://www.w3.org/2000/svg" height="64" width="64"><circle cx="32" cy="32" fill="#c75c5c" r="32"/><path d="M49.982 31.003c-.094-5.522-4.574-10.442-10.107-10.442-3.2 0-6.02 1.674-7.875 4.13-1.856-2.457-4.676-4.13-7.875-4.13-5.533 0-10.012 4.92-10.107 10.442H14c0 .034.007.065.007.1 0 .025-.007.05-.007.076 0 .155.038.272.045.42.495 14.07 17.813 19.84 17.813 19.84S49.43 45.677 49.95 31.62c.01-.157.05-.28.05-.443 0-.027-.007-.052-.007-.076 0-.036.007-.065.007-.1h-.018z" fill="#231f20" opacity=".2"/><path d="M49.982 29.003c-.094-5.522-4.574-10.442-10.107-10.442-3.2 0-6.02 1.674-7.875 4.13-1.856-2.457-4.676-4.13-7.875-4.13-5.533 0-10.012 4.92-10.107 10.442H14c0 .034.007.065.007.1 0 .025-.007.05-.007.076 0 .155.038.272.045.42.495 14.07 17.813 19.84 17.813 19.84S49.43 43.677 49.95 29.62c.01-.157.05-.28.05-.443 0-.027-.007-.052-.007-.076 0-.036.007-.065.007-.1h-.018z" fill="#fff"/></svg>