<svg xmlns="http://www.w3.org/2000/svg" height="64" width="64"><circle cx="32" cy="32" fill="#e0995e" r="32"/><path d="M48 52.5c-.64 0-1.28-.244-1.768-.732l-12-12a2.5 2.5 0 0 1 3.535-3.535l12 12a2.5 2.5 0 0 1 0 3.535A2.49 2.49 0 0 1 48 52.5z" fill="#231f20" opacity=".2"/><path d="M48 50.5c-.64 0-1.28-.244-1.768-.732l-12-12a2.5 2.5 0 0 1 3.535-3.535l12 12a2.5 2.5 0 0 1 0 3.535A2.49 2.49 0 0 1 48 50.5z" fill="#4f5d73"/><circle cx="28.386" cy="28.386" fill="#77b3d4" transform="matrix(.7071 -.7071 .7071 .7071 -11.7579 28.386)" r="10.567"/><path d="M28.386 19.82c2.704 0 5.41 1.032 7.472 3.095a10.57 10.57 0 0 1 0 14.944c-2.063 2.063-4.768 3.095-7.472 3.095s-5.41-1.032-7.472-3.095a10.57 10.57 0 0 1 0-14.944c2.063-2.063 4.768-3.095 7.472-3.095zm0-4c-3.89 0-7.55 1.515-10.3 4.267-5.68 5.68-5.68 14.92 0 20.6a14.47 14.47 0 0 0 10.3 4.267c3.89 0 7.55-1.515 10.3-4.267 5.68-5.68 5.68-14.92 0-20.6-2.75-2.752-6.41-4.267-10.3-4.267z" fill="#231f20" opacity=".2"/><path d="M28.386 17.82c2.704 0 5.41 1.032 7.472 3.095a10.57 10.57 0 0 1 0 14.944c-2.063 2.063-4.768 3.095-7.472 3.095s-5.41-1.032-7.472-3.095a10.57 10.57 0 0 1 0-14.944c2.063-2.063 4.768-3.095 7.472-3.095m0-4c-3.89 0-7.55 1.515-10.3 4.267-5.68 5.68-5.68 14.92 0 20.6a14.47 14.47 0 0 0 10.3 4.267c3.89 0 7.55-1.515 10.3-4.267 5.68-5.68 5.68-14.92 0-20.6-2.75-2.752-6.41-4.267-10.3-4.267z" fill="#fff"/></svg>