<svg xmlns="http://www.w3.org/2000/svg" xmlns:xlink="http://www.w3.org/1999/xlink" height="64" width="64"><circle cx="32" cy="32" fill="#4f5d73" r="32"/><g fill="#231f20"><use xlink:href="#B" opacity=".2"/><use xlink:href="#C" opacity=".2"/></g><g fill="#c75c5c"><use xlink:href="#B" y="-2"/><use xlink:href="#C" y="-2"/></g><use xlink:href="#D" fill="#231f20" opacity=".2"/><use xlink:href="#D" y="-2" fill="#e0995e"/><path d="M25.49 33.302c5.074-5.074 9.337-3.526 9.337-3.526s1.55 4.263-3.526 9.337-13.29 8.76-13.93 8.12c-.62-.62 3.046-8.857 8.12-13.93z" fill="#f5cf87"/><use xlink:href="#E" fill="#231f20" opacity=".2"/><use xlink:href="#E" y="-2" fill="#e0e0d1"/><use xlink:href="#F" fill="#231f20" opacity=".2"/><use xlink:href="#F" y="-2" fill="#c75c5c"/><g fill="#231f20"><circle cx="39.604" cy="27.15" transform="matrix(.7071 -.7071 .7071 .7071 -7.598 35.9566)" r="4" opacity=".2"/><circle cx="45.261" cy="21.493" transform="matrix(.7071 -.7071 .7071 .7071 -1.9411 38.2997)" r="2" opacity=".2"/></g><g fill="#4f5d73"><circle cx="39.604" cy="25.15" transform="matrix(.7071 -.7071 .7071 .7071 -6.1838 35.3708)" r="4"/><circle cx="45.261" cy="19.493" transform="matrix(.7071 -.7071 .7071 .7071 -.5269 37.7139)" r="2"/></g><defs ><path id="B" d="M32.096 39.682c-1.556 1.556-6.087 12.54-6.087 12.54-.665 1.208.33 2.085 2.593.936l8.13-4.435c4.38-2.435 5.228-3.07 5.17-8.028l-.815-5.853c-.28-2.005-1.78-2.373-3.336-.817l-5.656 5.657z"/><path id="C" d="M27.072 34.658c-1.556 1.556-12.54 6.087-12.54 6.087-1.208.665-2.085-.33-.936-2.593l4.435-8.13c2.435-4.38 3.07-5.228 8.028-5.17l5.853.815c2.005.28 2.373 1.78.817 3.336l-5.657 5.656z"/><path id="D" d="M21.247 39.545c5.074-5.074 9.337-3.526 9.337-3.526s1.55 4.263-3.526 9.337-13.29 8.76-13.93 8.12c-.62-.62 3.045-8.857 8.12-13.93z"/><path id="E" d="M43.634 37.078c-7.8 7.8-19.783 5.673-19.783 5.673s-2.137-11.972 5.673-19.783 19.643-8.64 21.197-7.087c1.507 1.507.724 13.387-7.087 21.197z"/><path id="F" d="M21.023 46.994c-.78.78-1.34 1.488-2.12.707s-.074-1.34.707-2.12l9.9-12.728c.78-.78 4.17-1.488 4.95-.707s.074 4.17-.707 4.95l-12.728 9.9z"/></defs></svg>